<svg xmlns="http://www.w3.org/2000/svg" viewBox="0 0 32 32" width="32" height="32">
  <rect x="0" y="0" width="32" height="32" rx="5" fill="#000000"/>
  <path d="M22 28L18.838 28L18.838 23.784L18.919 20.297L18.811 20.297Q18.649 21.568 17.811 22.378Q16.730 23.405 14.892 23.405Q12.649 23.405 11.324 21.878Q10 20.351 10 17.757L10 13.649Q10 11.054 11.324 9.527Q12.649 8 14.892 8Q16.730 8 17.811 9.027Q18.649 9.838 18.811 11.108L18.892 11.108L18.892 8.270L22 8.270L22 28M16 20.676Q17.324 20.676 18.081 19.865Q18.838 19.054 18.838 17.622L18.838 13.784Q18.838 12.351 18.081 11.541Q17.324 10.730 16 10.730Q14.622 10.730 13.878 11.514Q13.135 12.297 13.135 13.784L13.135 17.622Q13.135 19.081 13.878 19.878Q14.622 20.676 16 20.676" fill="#ffffff"/>
  <circle cx="27" cy="5" r="4.5" fill="#ef4444"/>
</svg>
